<svg width="126" height="130" viewBox="0 0 126 130" fill="none" xmlns="http://www.w3.org/2000/svg">
<mask id="path-1-inside-1_2003_30" fill="white">
<path d="M125.287 129L94.7871 118.5L42.7871 76.5L25.2871 114.5L0 129L62.7871 0L125.287 129ZM47.2871 68.5L93.7871 100.5L63.2871 33L47.2871 68.5Z"/>
</mask>
<path d="M125.287 129L94.7871 118.5L42.7871 76.5L25.2871 114.5L0 129L62.7871 0L125.287 129ZM47.2871 68.5L93.7871 100.5L63.2871 33L47.2871 68.5Z" fill="white"/>
<path d="M125.287 129L125.124 129.473L126.261 129.864L125.737 128.782L125.287 129ZM94.7871 118.5L94.4729 118.889L94.5413 118.944L94.6244 118.973L94.7871 118.5ZM42.7871 76.5L43.1013 76.111L42.6016 75.7075L42.333 76.2908L42.7871 76.5ZM25.2871 114.5L25.5358 114.934L25.6744 114.854L25.7413 114.709L25.2871 114.5ZM0 129L-0.449576 128.781L-1.1605 130.242L0.248719 129.434L0 129ZM62.7871 0L63.2371 -0.218008L62.7881 -1.14462L62.3375 -0.218818L62.7871 0ZM47.2871 68.5L46.8313 68.2946L46.6597 68.6752L47.0037 68.9119L47.2871 68.5ZM93.7871 100.5L93.5037 100.912L94.9814 101.929L94.2428 100.294L93.7871 100.5ZM63.2871 33L63.7428 32.7941L63.2865 31.7844L62.8313 32.7946L63.2871 33ZM125.287 129L125.45 128.527L94.9499 118.027L94.7871 118.5L94.6244 118.973L125.124 129.473L125.287 129ZM94.7871 118.5L95.1013 118.111L43.1013 76.111L42.7871 76.5L42.4729 76.889L94.4729 118.889L94.7871 118.5ZM42.7871 76.5L42.333 76.2908L24.833 114.291L25.2871 114.5L25.7413 114.709L43.2413 76.7092L42.7871 76.5ZM25.2871 114.5L25.0384 114.066L-0.248719 128.566L0 129L0.248719 129.434L25.5358 114.934L25.2871 114.5ZM0 129L0.449576 129.219L63.2367 0.218818L62.7871 0L62.3375 -0.218818L-0.449576 128.781L0 129ZM62.7871 0L62.3371 0.218008L124.837 129.218L125.287 129L125.737 128.782L63.2371 -0.218008L62.7871 0ZM47.2871 68.5L47.0037 68.9119L93.5037 100.912L93.7871 100.5L94.0706 100.088L47.5706 68.0881L47.2871 68.5ZM93.7871 100.5L94.2428 100.294L63.7428 32.7941L63.2871 33L62.8315 33.2059L93.3315 100.706L93.7871 100.5ZM63.2871 33L62.8313 32.7946L46.8313 68.2946L47.2871 68.5L47.7429 68.7054L63.7429 33.2054L63.2871 33Z" fill="#C0C0C0" mask="url(#path-1-inside-1_2003_30)"/>
<path d="M117.717 120.912L118.819 121.669L118.484 120.375L116.229 111.674L124.497 128.587L100.155 119.409L114.914 121.992L116.784 122.32L115.317 121.114L101.718 109.932L117.717 120.912Z" fill="#C0C0C0" stroke="#C0C0C0"/>
<path d="M12.5186 109.866L10.0186 118.866L9.6875 120.059L10.7539 119.431L26.3896 110.232L24.6113 114.145L1.65723 127.262L15.6045 98.5459L12.5186 109.866Z" fill="#C0C0C0" stroke="#C0C0C0"/>
<path d="M43.6924 75.8945L78.625 104.602L66.8135 95.1104L52.8174 83.6133L45.3125 77.6094L42.8438 75.6348L42.0908 74.7734L43.6924 75.8945Z" fill="#C0C0C0" stroke="#C0C0C0"/>
<path d="M64.6543 33.4287L92.2715 89.1318L88.8799 85.1748L88.0391 85.6943L90.6279 91.8135L63.8857 33.2363L64.6543 33.4287Z" fill="#C0C0C0" stroke="#C0C0C0"/>
</svg>
